<svg width="500" height="500" viewBox="0 0 500 500" fill="none" xmlns="http://www.w3.org/2000/svg">
<path d="M190.117 251.68H153.906V287.961H196.094V299H141.039V196.625H195.391V207.734H153.906V240.641H190.117V251.68ZM276.812 266.516C276.25 277.484 273.156 285.875 267.531 291.688C261.953 297.5 254.055 300.406 243.836 300.406C233.57 300.406 225.414 296.516 219.367 288.734C213.32 280.906 210.297 270.312 210.297 256.953V238.391C210.297 225.078 213.391 214.555 219.578 206.82C225.812 199.086 234.297 195.219 245.031 195.219C254.922 195.219 262.562 198.195 267.953 204.148C273.391 210.055 276.344 218.516 276.812 229.531H263.805C263.242 221.188 261.484 215.234 258.531 211.672C255.578 208.109 251.078 206.328 245.031 206.328C238.047 206.328 232.68 209.07 228.93 214.555C225.18 219.992 223.305 227.984 223.305 238.531V257.305C223.305 267.664 225.039 275.609 228.508 281.141C232.023 286.672 237.133 289.438 243.836 289.438C250.539 289.438 255.367 287.773 258.32 284.445C261.273 281.117 263.102 275.141 263.805 266.516H276.812ZM360.906 256.812C360.906 270.781 357.93 281.539 351.977 289.086C346.023 296.633 337.562 300.406 326.594 300.406C316.047 300.406 307.703 296.75 301.562 289.438C295.469 282.078 292.305 271.695 292.07 258.289V239.023C292.07 225.336 295.094 214.625 301.141 206.891C307.188 199.109 315.625 195.219 326.453 195.219C337.234 195.219 345.625 198.945 351.625 206.398C357.672 213.805 360.766 224.398 360.906 238.18V256.812ZM348.039 238.883C348.039 228.055 346.258 220.016 342.695 214.766C339.18 209.469 333.766 206.82 326.453 206.82C319.375 206.82 314.008 209.492 310.352 214.836C306.742 220.18 304.914 228.055 304.867 238.461V256.812C304.867 267.266 306.672 275.234 310.281 280.719C313.938 286.203 319.375 288.945 326.594 288.945C333.812 288.945 339.156 286.414 342.625 281.352C346.094 276.289 347.898 268.531 348.039 258.078V238.883Z" fill="black"/>
</svg>
